<svg height="682pt" viewBox="-21 -55 682.66799 682" width="682pt" xmlns="http://www.w3.org/2000/svg"><path d="m626.074219 489.339844-94.222657-94.21875c11.484376-21.945313 17.992188-46.878906 17.992188-73.316406 0-43.375-17.503906-82.734376-45.816406-111.40625.367187-1.171876.558594-2.417969.558594-3.707032v-152.390625c0-30.996093-25.214844-56.214843-56.21875-56.214843h-367.601563c-31 0-56.21875 25.21875-56.21875 56.214843v243.808594h-12.046875c-6.90625 0-12.5 5.601563-12.5 12.5 0 39.980469 32.523438 72.507813 72.503906 72.507813h172.371094c24.023438 57.125 80.558594 97.339843 146.316406 97.339843 26.433594 0 51.371094-6.507812 73.316406-17.992187l40.742188 40.746094c.003906.003906.007812.011718.015625.015624.003906.003907.007813.007813.011719.015626l53.453125 53.445312c8.988281 8.996094 20.953125 13.945312 33.671875 13.945312 12.714844 0 24.675781-4.949218 33.671875-13.945312 18.570312-18.570312 18.570312-48.777344 0-67.347656zm-576.523438-435.039063c0-17.210937 14.003907-31.214843 31.214844-31.214843h367.609375c17.210938 0 31.210938 14.003906 31.210938 31.214843v135.824219c-25.273438-17.019531-55.695313-26.96875-88.390626-26.96875-79.429687 0-145.40625 58.671875-156.878906 134.953125h-184.765625zm22.953125 303.8125c-21.871094 0-40.332031-14.851562-45.832031-35h205.886719c.097656 12.027344 1.539062 23.746094 4.183594 35zm193.6875 10.976563c-.230468-1.871094-.871094-3.609375-1.832031-5.132813-4.414063-13.253906-6.816406-27.425781-6.816406-42.152343 0-73.691407 59.957031-133.648438 133.648437-133.648438 73.695313 0 133.648438 59.957031 133.648438 133.648438 0 73.695312-59.953125 133.648437-133.648438 133.648437-57.050781.003906-105.863281-35.9375-125-86.363281zm251.988282 47.714844 27.914062 27.914062-31.988281 31.988281-27.914063-27.914062c12.121094-9.085938 22.902344-19.867188 31.988282-31.988281zm90.21875 122.203124c-4.277344 4.273438-9.957032 6.625-15.996094 6.625-6.042969 0-11.722656-2.351562-15.996094-6.625l-44.625-44.621093 31.992188-31.992188 44.621093 44.625c8.816407 8.820313 8.816407 23.167969.003907 31.988281zm0 0"/><path d="m391.191406 237.570312c-29.085937 0-52.753906 23.667969-52.753906 52.753907 0 6.90625 5.59375 12.5 12.5 12.5s12.503906-5.59375 12.503906-12.5c0-15.300781 12.449219-27.753907 27.75-27.753907 15.300782 0 27.753906 12.453126 27.753906 27.753907 0 15.304687-12.453124 27.75-27.753906 27.75-6.902344 0-12.5 5.601562-12.5 12.503906v26.523437c0 6.90625 5.597656 12.5 12.5 12.5s12.503906-5.59375 12.503906-12.5v-15.519531c23.070313-5.625 40.25-26.472656 40.25-51.257812 0-29.089844-23.664062-52.753907-52.753906-52.753907zm0 0"/><path d="m391.191406 393.65625c-3.292968 0-6.511718 1.328125-8.839844 3.660156-2.320312 2.324219-3.660156 5.542969-3.660156 8.839844 0 3.289062 1.339844 6.511719 3.660156 8.835938 2.328126 2.324218 5.546876 3.667968 8.839844 3.667968 3.300782 0 6.511719-1.335937 8.839844-3.667968 2.335938-2.324219 3.660156-5.546876 3.660156-8.835938 0-3.300781-1.324218-6.515625-3.660156-8.839844-2.328125-2.332031-5.539062-3.660156-8.839844-3.660156zm0 0"/><path d="m100.109375 102.972656h158.917969c6.90625 0 12.5-5.597656 12.5-12.5 0-6.90625-5.59375-12.5-12.5-12.5h-158.917969c-6.90625 0-12.5 5.59375-12.5 12.5 0 6.902344 5.59375 12.5 12.5 12.5zm0 0"/><path d="m309.03125 102.96875c3.289062 0 6.515625-1.335938 8.839844-3.664062 2.324218-2.324219 3.660156-5.546876 3.660156-8.835938s-1.335938-6.515625-3.660156-8.839844c-2.324219-2.324218-5.550782-3.660156-8.839844-3.660156-3.285156 0-6.511719 1.335938-8.835938 3.660156-2.324218 2.324219-3.664062 5.550782-3.664062 8.839844s1.339844 6.511719 3.664062 8.835938c2.324219 2.328124 5.550782 3.664062 8.835938 3.664062zm0 0"/><path d="m204.492188 218.226562h-104.382813c-6.90625 0-12.5 5.601563-12.5 12.5 0 6.902344 5.59375 12.503907 12.5 12.503907h104.382813c6.90625 0 12.5-5.601563 12.5-12.503907 0-6.898437-5.59375-12.5-12.5-12.5zm0 0"/><path d="m100.109375 173.097656h54.535156c6.902344 0 12.503907-5.59375 12.503907-12.5 0-6.902344-5.601563-12.5-12.503907-12.5h-54.535156c-6.90625 0-12.5 5.597656-12.5 12.5 0 6.90625 5.59375 12.5 12.5 12.5zm0 0"/><path d="m259.027344 148.097656h-54.535156c-6.90625 0-12.5 5.597656-12.5 12.5 0 6.90625 5.59375 12.5 12.5 12.5h54.535156c6.90625 0 12.5-5.59375 12.5-12.5 0-6.902344-5.59375-12.5-12.5-12.5zm0 0"/></svg>